<?xml version="1.0" encoding="UTF-8"?>
<svg id="Layer_1" data-name="Layer 1" xmlns="http://www.w3.org/2000/svg" viewBox="0 0 477.33 376.07">
  <defs>
    <style>
      .cls-1 {
        fill: none;
      }

      .cls-1, .cls-2, .cls-3, .cls-4 {
        stroke: #231f20;
        stroke-miterlimit: 10;
      }

      .cls-2 {
        fill: #fff;
      }

      .cls-3 {
        fill: #231f20;
      }

      .cls-4 {
        fill: #fff200;
      }
    </style>
  </defs>
  <line class="cls-1" x1="131.33" y1="286.03" x2="131.31" y2="286.03"/>
  <path class="cls-4" d="m190.99,282.87c7.73-.16,15.61-.25,23.59-.25,8.84,0,17.56.11,26.09.32"/>
  <path class="cls-1" d="m240,289.3s-30.53-2.65-49.13,0"/>
  <line class="cls-1" x1="109.68" y1="289.33" x2="109.66" y2="289.31"/>
  <path class="cls-3" d="m190.87,289.29s.02.08,0,.14l-23.66-.03-34.6-.06-22.96-.03c-.11-.25-.22-.49-.35-.75-41.22-89.64-44.03-175.18-13.32-257.12,2.02-5.39,8.89-7.06,13.19-3.21,55.41,49.68,83.12,134.03,81.8,254.64,0,.06,0,.13-.02.19,0,2.07-.05,4.14-.1,6.24Z"/>
  <polygon class="cls-3" points="239.97 289.53 239.97 289.55 190.87 289.45 190.87 289.44 239.97 289.53"/>
  <line class="cls-1" x1="321.59" y1="289.66" x2="321.57" y2="289.68"/>
  <path class="cls-3" d="m451.64,221.84c-3.28,6.57-86.11-56.51-130.54-59.93,18.45,9.29,34.38,19.11,44.48,30.15,3.02,3.31,3.61,8.19,1.5,12.15l-42.92,80.61-1.97,3.71-.59,1.13h-.02l-23-.03-37.89-.06-20.71-.03c.02-.08.02-.16.03-.24.21-2.1.43-4.17.65-6.24,0-.05,0-.08.02-.13,7.56-70.22,20.66-120.87,39.44-151.56,15.62-25.55,45.34-34.93,75.15-32.05,68.28,6.62,106.5,115.16,96.39,122.52Z"/>
  <path class="cls-3" d="m332.85,289.91c-7.38,10.01-17.28,18.93-23.26,22.26l11.98-22.49v-.02l.6-1.13c-6.95-.83-14.24-1.58-21.83-2.24-12.38-1.1-25.52-1.96-39.26-2.56-6.68-.29-13.51-.51-20.44-.67-1.94-.05-3.91-.1-5.89-.13-.11-.02-.22-.02-.33-.02h-.7c-5.89-.1-11.87-.14-17.9-.14-4.57,0-9.15.03-13.62.11h-1.72c-3.2.05-6.38.1-9.53.17-7.97.19-15.76.46-23.38.81-12.63.59-24.74,1.4-36.17,2.4-7.68.67-15.06,1.45-22.1,2.29l.35.75h.02v.02c4.12,8.94,8.64,17.93,13.54,26.95-9.48-6.89-17.07-15.54-22.02-26.68-45.62,6.12-75.07,15.83-75.07,26.76,0,16.59,67.94,30.37,157.25,33.1h.05c2.9.08,5.79.16,8.72.22h.05c3.02.06,6.06.11,9.13.16,3.18.03,6.38.06,9.61.08,1.62.02,3.26.02,4.9.02,1.22,0,2.43,0,3.64-.02,3.21-.02,6.43-.03,9.61-.08,3.05-.05,6.11-.1,9.13-.16h.05c94.18-1.94,167.26-16.13,167.26-33.33,0-10.72-28.41-20.28-72.67-26.44Zm-292.96,26.36c12.84-9.94,28.98-17.63,56.03-17.86l5.55,7.14c-18.28.95-39.21,4.04-61.58,10.72Zm199.1-16.42s-37.57-3.29-48.44,1.64c.14-4.06.25-8.07.32-12.04l49.09.1c-.33,3.39-.65,6.82-.97,10.31Zm89.23,5.58l4.53-7.49c22.72-.64,40.58,6.47,55.5,18.33-18.25-7.17-38.08-11.14-60.04-10.83Z"/>
  <path class="cls-2" d="m142.27,311.85c-35.16-76.44-44.58-149.38-33.67-223.11.2-1.38,2-1.85,2.85-.73,44.9,59.36,65.3,135.98,53.48,223.04-.17,1.26-1.4,2.12-2.64,1.84-6.14-1.42-11.92-1.11-17.5.17-1.02.23-2.08-.26-2.51-1.21Z"/>
  <path class="cls-2" d="m260.75,310.93c9.59-3.93,19.69-6.48,30.38-7.39l55.22-103.29c-14-16.54-30.92-28.57-53.16-32.39-29.63,73.93-34.21,112.94-32.43,143.07Z"/>
</svg>